# xmcd
#
# Track frame offsets:
#	150
#	11539
#	26338
#	44947
#	62831
#	79377
#	95802
#	110040
#	127040
#	145914
#
# Disc length: 2135 seconds
#
# Revision: 1
# Processed by: cddbd v1.5.2PL0 Copyright (c) Steve Scherf et al.
# Submitted via: audiograbber 1.83.01
#
DISCID=9408550a
DTITLE=Jon Russell - First Time Out
DYEAR=2002
DGENRE=Country
TTITLE0=She Rocked My Boat (2:29)
TTITLE1=I Ain't Got Jack (3:15)
TTITLE2=I'm Not Here To Start A Fire 4:06)
TTITLE3=Streets Of Gold (3:56)
TTITLE4=Not A Brick Out Of Place (3:38)
TTITLE5=Stitches (3:37)
TTITLE6=U-Haul (3:07)
TTITLE7=A Few Questions (3:44)
TTITLE8=Big (4:09)
TTITLE9=That's The Way It Was (3:10)
EXTD=
EXTT0=
EXTT1=
EXTT2=
EXTT3=
EXTT4=
EXTT5=
EXTT6=
EXTT7=
EXTT8=
EXTT9=
PLAYORDER=
